<svg width="36" height="36" viewBox="0 0 36 36" fill="none" xmlns="http://www.w3.org/2000/svg">
<rect width="36" height="36" rx="18" fill="#F2F4F7"/>
<path fill-rule="evenodd" clip-rule="evenodd" d="M15.2422 12.5236C13.896 12.5236 12.8047 13.6149 12.8047 14.9611V20.9611C12.8047 22.3073 13.896 23.3986 15.2422 23.3986H21.2422C22.5884 23.3986 23.6797 22.3073 23.6797 20.9611V14.9611C23.6797 13.6149 22.5884 12.5236 21.2422 12.5236H15.2422ZM11.6797 14.9611C11.6797 12.9935 13.2747 11.3986 15.2422 11.3986H21.2422C23.2097 11.3986 24.8047 12.9935 24.8047 14.9611V20.9611C24.8047 22.9286 23.2097 24.5236 21.2422 24.5236H15.2422C13.2747 24.5236 11.6797 22.9286 11.6797 20.9611V14.9611ZM18.2422 16.2736C17.3102 16.2736 16.5547 17.0291 16.5547 17.9611C16.5547 18.893 17.3102 19.6486 18.2422 19.6486C19.1742 19.6486 19.9297 18.893 19.9297 17.9611C19.9297 17.0291 19.1742 16.2736 18.2422 16.2736ZM15.4297 17.9611C15.4297 16.4078 16.6889 15.1486 18.2422 15.1486C19.7955 15.1486 21.0547 16.4078 21.0547 17.9611C21.0547 19.5144 19.7955 20.7736 18.2422 20.7736C16.6889 20.7736 15.4297 19.5144 15.4297 17.9611ZM22.1797 14.5861C22.1797 14.2754 21.9278 14.0236 21.6172 14.0236C21.3065 14.0236 21.0547 14.2754 21.0547 14.5861V14.5871C21.0547 14.8977 21.3065 15.1496 21.6172 15.1496C21.9278 15.1496 22.1797 14.8977 22.1797 14.5871V14.5861Z" fill="#282828"/>
</svg>
